{
	"asset":{
		"copyright":"Aefoniq",
		"generator":"Khronos glTF Blender I/O v5.0.21",
		"version":"2.0"
	},
	"scene":0,
	"scenes":[
		{
			"name":"Scene",
			"nodes":[
				0,
				1,
				2,
				3,
				4,
				5,
				6,
				7,
				8,
				9,
				10,
				11,
				12,
				13,
				14,
				15,
				16,
				17,
				18,
				19,
				20,
				21,
				22,
				23,
				24,
				25,
				26,
				27,
				28,
				29,
				30,
				31,
				32,
				33,
				34,
				35,
				36,
				37,
				38,
				39,
				40,
				41,
				42,
				43,
				44,
				45,
				46,
				47,
				48,
				49,
				50,
				51
			]
		}
	],
	"nodes":[
		{
			"mesh":0,
			"name":"Plane.045",
			"translation":[
				0,
				0.09140070527791977,
				0.021033525466918945
			]
		},
		{
			"mesh":1,
			"name":"Plane.044",
			"translation":[
				0,
				0.09140070527791977,
				0.021033525466918945
			]
		},
		{
			"mesh":2,
			"name":"Plane.043",
			"translation":[
				0,
				0.09140070527791977,
				0.021033525466918945
			]
		},
		{
			"mesh":3,
			"name":"Plane.042",
			"translation":[
				0,
				0.09140070527791977,
				0.021033525466918945
			]
		},
		{
			"mesh":4,
			"name":"Plane.041",
			"translation":[
				0,
				0.09140070527791977,
				0.021033525466918945
			]
		},
		{
			"mesh":5,
			"name":"Plane.040",
			"translation":[
				0,
				0.09140070527791977,
				0.021033525466918945
			]
		},
		{
			"mesh":6,
			"name":"Plane.039",
			"translation":[
				0.700565755367279,
				-0.38550448417663574,
				-1.4277948141098022
			]
		},
		{
			"mesh":7,
			"name":"Plane.037",
			"translation":[
				0,
				0.09140070527791977,
				0.021033525466918945
			]
		},
		{
			"mesh":8,
			"name":"Plane.036",
			"translation":[
				0,
				0.09140070527791977,
				0.021033525466918945
			]
		},
		{
			"mesh":9,
			"name":"Plane.035",
			"translation":[
				0,
				0.09140070527791977,
				0.021033525466918945
			]
		},
		{
			"mesh":10,
			"name":"Plane.034",
			"translation":[
				0,
				0.09140070527791977,
				0.021033525466918945
			]
		},
		{
			"mesh":11,
			"name":"Plane.033",
			"translation":[
				0,
				0.09140070527791977,
				0.021033525466918945
			]
		},
		{
			"mesh":12,
			"name":"Plane.032",
			"translation":[
				0,
				0.09140070527791977,
				0.021033525466918945
			]
		},
		{
			"mesh":13,
			"name":"Plane.031",
			"translation":[
				0,
				0.09140070527791977,
				0.021033525466918945
			]
		},
		{
			"mesh":14,
			"name":"Plane.028",
			"translation":[
				0,
				0.09140070527791977,
				0.021033525466918945
			]
		},
		{
			"mesh":15,
			"name":"Plane.027",
			"translation":[
				0,
				0.09140070527791977,
				0.021033525466918945
			]
		},
		{
			"mesh":16,
			"name":"Plane.026",
			"translation":[
				0,
				0.09140070527791977,
				0.021033525466918945
			]
		},
		{
			"mesh":17,
			"name":"Plane.025",
			"translation":[
				0.019133571535348892,
				0.5504022836685181,
				2.3857483863830566
			]
		},
		{
			"mesh":18,
			"name":"Plane.024",
			"translation":[
				0,
				0.09140070527791977,
				0.021033525466918945
			]
		},
		{
			"mesh":19,
			"name":"Plane.021",
			"translation":[
				0,
				0.4997485876083374,
				-2.2871601581573486
			]
		},
		{
			"mesh":20,
			"name":"Plane.020",
			"translation":[
				-0.05387837812304497,
				0.7957212328910828,
				-2.3068389892578125
			]
		},
		{
			"mesh":21,
			"name":"Plane.018",
			"translation":[
				0,
				0.09140070527791977,
				0.021033525466918945
			]
		},
		{
			"mesh":22,
			"name":"Rearlight",
			"translation":[
				0,
				0.09140070527791977,
				0.021033525466918945
			]
		},
		{
			"mesh":23,
			"name":"Plane.016",
			"translation":[
				0,
				0.6221451759338379,
				-2.287205696105957
			]
		},
		{
			"mesh":24,
			"name":"Plane.015",
			"translation":[
				0,
				0.09140070527791977,
				0.021033525466918945
			]
		},
		{
			"mesh":25,
			"name":"Plane.014",
			"translation":[
				0,
				0.09140070527791977,
				0.021033525466918945
			]
		},
		{
			"mesh":26,
			"name":"Plane.013",
			"translation":[
				0,
				0.09140070527791977,
				0.021033525466918945
			]
		},
		{
			"mesh":27,
			"name":"Plane.012",
			"translation":[
				0,
				0.09140070527791977,
				0.021033525466918945
			]
		},
		{
			"mesh":28,
			"name":"Plane.007",
			"translation":[
				0,
				0.09140070527791977,
				0.021033525466918945
			]
		},
		{
			"mesh":29,
			"name":"Plane.006",
			"translation":[
				0,
				0.09140070527791977,
				0.021033525466918945
			]
		},
		{
			"name":"Indicator",
			"translation":[
				0,
				0.09140070527791977,
				1.4508334398269653
			]
		},
		{
			"mesh":30,
			"name":"Plane.004",
			"translation":[
				0,
				0.09140070527791977,
				0.021033525466918945
			]
		},
		{
			"mesh":31,
			"name":"Plane.002",
			"translation":[
				0,
				0.09140070527791977,
				0.021033525466918945
			]
		},
		{
			"mesh":32,
			"name":"Lambo Wheel.Ft.R",
			"translation":[
				-0.8799999356269836,
				0.3801567256450653,
				1.270121455192566
			]
		},
		{
			"mesh":33,
			"name":"Lambo Wheel.Ft.L",
			"translation":[
				0.8799999356269836,
				0.3801567256450653,
				1.270121455192566
			]
		},
		{
			"mesh":34,
			"name":"Lambo Wheel.Bk.R",
			"translation":[
				-0.8899999260902405,
				0.3791567385196686,
				-1.429940938949585
			]
		},
		{
			"mesh":35,
			"name":"Lambo Wheel.Bk.L",
			"translation":[
				0.8899999260902405,
				0.3791567385196686,
				-1.429940938949585
			]
		},
		{
			"mesh":36,
			"name":"Body.026",
			"translation":[
				0,
				0.2587534189224243,
				0.1859833002090454
			]
		},
		{
			"mesh":37,
			"name":"Body.025",
			"translation":[
				0,
				0.2587534189224243,
				0.1859833002090454
			]
		},
		{
			"mesh":38,
			"name":"Body.024",
			"translation":[
				0,
				0.2587534189224243,
				0.1859833002090454
			]
		},
		{
			"mesh":39,
			"name":"Body.023",
			"translation":[
				0,
				0.2587534189224243,
				0.1859833002090454
			]
		},
		{
			"mesh":40,
			"name":"Body.022",
			"translation":[
				0,
				0.2587534189224243,
				0.1859833002090454
			]
		},
		{
			"mesh":41,
			"name":"Body.021",
			"translation":[
				0,
				0.2587534189224243,
				0.1859833002090454
			]
		},
		{
			"mesh":42,
			"name":"Body.020",
			"translation":[
				0,
				0.2587534189224243,
				0.1859833002090454
			]
		},
		{
			"mesh":43,
			"name":"Body.019",
			"translation":[
				0,
				0.2587534189224243,
				0.1859833002090454
			]
		},
		{
			"mesh":44,
			"name":"Body.018",
			"translation":[
				0,
				0.2587534189224243,
				0.1859833002090454
			]
		},
		{
			"mesh":45,
			"name":"Body.017",
			"translation":[
				0,
				0.2587534189224243,
				0.1859833002090454
			]
		},
		{
			"mesh":46,
			"name":"Body.016",
			"translation":[
				0,
				0.2587534189224243,
				0.1859833002090454
			]
		},
		{
			"mesh":47,
			"name":"Headlight",
			"translation":[
				0,
				0.3705391585826874,
				0.020929694175720215
			]
		},
		{
			"mesh":48,
			"name":"Body",
			"translation":[
				0,
				0.3705391585826874,
				0.020929694175720215
			]
		},
		{
			"mesh":49,
			"name":"Indicator Right",
			"translation":[
				0,
				0.09140070527791977,
				0.021033525466918945
			]
		},
		{
			"mesh":50,
			"name":"Indicator Left",
			"translation":[
				0,
				0.09140070527791977,
				0.021033525466918945
			]
		}
	],
	"meshes":[
		{
			"name":"Plane.049",
			"primitives":[
				{
					"attributes":{
						"POSITION":0,
						"NORMAL":1,
						"TEXCOORD_0":2
					},
					"indices":3
				}
			]
		},
		{
			"name":"Plane.048",
			"primitives":[
				{
					"attributes":{
						"POSITION":4,
						"NORMAL":5,
						"TEXCOORD_0":6
					},
					"indices":7
				}
			]
		},
		{
			"name":"Plane.047",
			"primitives":[
				{
					"attributes":{
						"POSITION":8,
						"NORMAL":9,
						"TEXCOORD_0":10
					},
					"indices":11
				}
			]
		},
		{
			"name":"Plane.045",
			"primitives":[
				{
					"attributes":{
						"POSITION":12,
						"NORMAL":13,
						"TEXCOORD_0":14
					},
					"indices":15
				}
			]
		},
		{
			"name":"Plane.044",
			"primitives":[
				{
					"attributes":{
						"POSITION":16,
						"NORMAL":17,
						"TEXCOORD_0":18
					},
					"indices":19
				}
			]
		},
		{
			"name":"Plane.043",
			"primitives":[
				{
					"attributes":{
						"POSITION":20,
						"NORMAL":21,
						"TEXCOORD_0":22
					},
					"indices":23
				}
			]
		},
		{
			"name":"Plane.042",
			"primitives":[
				{
					"attributes":{
						"POSITION":24,
						"NORMAL":25,
						"TEXCOORD_0":26
					},
					"indices":27
				}
			]
		},
		{
			"name":"Plane.040",
			"primitives":[
				{
					"attributes":{
						"POSITION":28,
						"NORMAL":29,
						"TEXCOORD_0":30
					},
					"indices":31
				}
			]
		},
		{
			"name":"Plane.039",
			"primitives":[
				{
					"attributes":{
						"POSITION":32,
						"NORMAL":33,
						"TEXCOORD_0":34
					},
					"indices":35
				}
			]
		},
		{
			"name":"Plane.038",
			"primitives":[
				{
					"attributes":{
						"POSITION":36,
						"NORMAL":37,
						"TEXCOORD_0":38
					},
					"indices":39
				}
			]
		},
		{
			"name":"Plane.037",
			"primitives":[
				{
					"attributes":{
						"POSITION":40,
						"NORMAL":41,
						"TEXCOORD_0":42
					},
					"indices":43
				}
			]
		},
		{
			"name":"Plane.036",
			"primitives":[
				{
					"attributes":{
						"POSITION":44,
						"NORMAL":45,
						"TEXCOORD_0":46
					},
					"indices":47
				}
			]
		},
		{
			"name":"Plane.035",
			"primitives":[
				{
					"attributes":{
						"POSITION":48,
						"NORMAL":49,
						"TEXCOORD_0":50
					},
					"indices":51
				}
			]
		},
		{
			"name":"Plane.034",
			"primitives":[
				{
					"attributes":{
						"POSITION":52,
						"NORMAL":53,
						"TEXCOORD_0":54
					},
					"indices":55
				}
			]
		},
		{
			"name":"Plane.032",
			"primitives":[
				{
					"attributes":{
						"POSITION":56,
						"NORMAL":57
					},
					"indices":58
				}
			]
		},
		{
			"name":"Plane.028",
			"primitives":[
				{
					"attributes":{
						"POSITION":59,
						"NORMAL":60,
						"TEXCOORD_0":61
					},
					"indices":62
				}
			]
		},
		{
			"name":"Plane.027",
			"primitives":[
				{
					"attributes":{
						"POSITION":63,
						"NORMAL":64,
						"TEXCOORD_0":65
					},
					"indices":66
				}
			]
		},
		{
			"name":"Plane.026",
			"primitives":[
				{
					"attributes":{
						"POSITION":67,
						"NORMAL":68,
						"TEXCOORD_0":69
					},
					"indices":70
				}
			]
		},
		{
			"name":"Plane.024",
			"primitives":[
				{
					"attributes":{
						"POSITION":71,
						"NORMAL":72,
						"TEXCOORD_0":73
					},
					"indices":74
				}
			]
		},
		{
			"name":"Plane.016",
			"primitives":[
				{
					"attributes":{
						"POSITION":75,
						"NORMAL":76,
						"TEXCOORD_0":77
					},
					"indices":78
				}
			]
		},
		{
			"name":"Plane.022",
			"primitives":[
				{
					"attributes":{
						"POSITION":79,
						"NORMAL":80,
						"TEXCOORD_0":81
					},
					"indices":82
				}
			]
		},
		{
			"name":"Plane.019",
			"primitives":[
				{
					"attributes":{
						"POSITION":83,
						"NORMAL":84,
						"TEXCOORD_0":85
					},
					"indices":86
				}
			]
		},
		{
			"name":"Plane.018",
			"primitives":[
				{
					"attributes":{
						"POSITION":87,
						"NORMAL":88,
						"TEXCOORD_0":89
					},
					"indices":90
				}
			]
		},
		{
			"name":"Plane.017",
			"primitives":[
				{
					"attributes":{
						"POSITION":91,
						"NORMAL":92,
						"TEXCOORD_0":93
					},
					"indices":94
				}
			]
		},
		{
			"name":"Plane.012",
			"primitives":[
				{
					"attributes":{
						"POSITION":95,
						"NORMAL":96
					},
					"indices":97
				}
			]
		},
		{
			"name":"Plane.009",
			"primitives":[
				{
					"attributes":{
						"POSITION":98,
						"NORMAL":99,
						"TEXCOORD_0":100
					},
					"indices":101
				}
			]
		},
		{
			"name":"Plane.008",
			"primitives":[
				{
					"attributes":{
						"POSITION":102,
						"NORMAL":103,
						"TEXCOORD_0":104
					},
					"indices":105
				}
			]
		},
		{
			"name":"Plane.015",
			"primitives":[
				{
					"attributes":{
						"POSITION":106,
						"NORMAL":107,
						"TEXCOORD_0":108
					},
					"indices":109
				}
			]
		},
		{
			"name":"Plane.007",
			"primitives":[
				{
					"attributes":{
						"POSITION":110,
						"NORMAL":111,
						"TEXCOORD_0":112
					},
					"indices":113
				}
			]
		},
		{
			"name":"Plane.029",
			"primitives":[
				{
					"attributes":{
						"POSITION":114,
						"NORMAL":115,
						"TEXCOORD_0":116
					},
					"indices":117
				}
			]
		},
		{
			"name":"Plane.004",
			"primitives":[
				{
					"attributes":{
						"POSITION":118,
						"NORMAL":119,
						"TEXCOORD_0":120
					},
					"indices":121
				}
			]
		},
		{
			"name":"Plane.002",
			"primitives":[
				{
					"attributes":{
						"POSITION":122,
						"NORMAL":123,
						"TEXCOORD_0":124
					},
					"indices":125
				}
			]
		},
		{
			"name":"Circle.002",
			"primitives":[
				{
					"attributes":{
						"POSITION":126,
						"NORMAL":127,
						"TEXCOORD_0":128
					},
					"indices":129
				}
			]
		},
		{
			"name":"Circle.001",
			"primitives":[
				{
					"attributes":{
						"POSITION":130,
						"NORMAL":131,
						"TEXCOORD_0":132
					},
					"indices":133
				}
			]
		},
		{
			"name":"Circle.004",
			"primitives":[
				{
					"attributes":{
						"POSITION":134,
						"NORMAL":135,
						"TEXCOORD_0":136
					},
					"indices":129
				}
			]
		},
		{
			"name":"Circle.003",
			"primitives":[
				{
					"attributes":{
						"POSITION":137,
						"NORMAL":138,
						"TEXCOORD_0":139
					},
					"indices":133
				}
			]
		},
		{
			"name":"Plane.079",
			"primitives":[
				{
					"attributes":{
						"POSITION":140,
						"NORMAL":141,
						"TEXCOORD_0":142
					},
					"indices":143
				}
			]
		},
		{
			"name":"Plane.078",
			"primitives":[
				{
					"attributes":{
						"POSITION":144,
						"NORMAL":145,
						"TEXCOORD_0":146
					},
					"indices":147
				}
			]
		},
		{
			"name":"Plane.075",
			"primitives":[
				{
					"attributes":{
						"POSITION":148,
						"NORMAL":149,
						"TEXCOORD_0":150
					},
					"indices":151
				}
			]
		},
		{
			"name":"Plane.073",
			"primitives":[
				{
					"attributes":{
						"POSITION":152,
						"NORMAL":153,
						"TEXCOORD_0":154
					},
					"indices":155
				}
			]
		},
		{
			"name":"Plane.072",
			"primitives":[
				{
					"attributes":{
						"POSITION":156,
						"NORMAL":157,
						"TEXCOORD_0":158
					},
					"indices":159
				}
			]
		},
		{
			"name":"Plane.060",
			"primitives":[
				{
					"attributes":{
						"POSITION":160,
						"NORMAL":161,
						"TEXCOORD_0":162
					},
					"indices":163
				}
			]
		},
		{
			"name":"Plane.050",
			"primitives":[
				{
					"attributes":{
						"POSITION":164,
						"NORMAL":165,
						"TEXCOORD_0":166
					},
					"indices":167
				}
			]
		},
		{
			"name":"Plane.051",
			"primitives":[
				{
					"attributes":{
						"POSITION":168,
						"NORMAL":169,
						"TEXCOORD_0":170
					},
					"indices":171
				}
			]
		},
		{
			"name":"Plane.052",
			"primitives":[
				{
					"attributes":{
						"POSITION":172,
						"NORMAL":173,
						"TEXCOORD_0":174
					},
					"indices":175
				}
			]
		},
		{
			"name":"Plane.053",
			"primitives":[
				{
					"attributes":{
						"POSITION":176,
						"NORMAL":177,
						"TEXCOORD_0":178
					},
					"indices":179
				}
			]
		},
		{
			"name":"Plane.054",
			"primitives":[
				{
					"attributes":{
						"POSITION":180,
						"NORMAL":181,
						"TEXCOORD_0":182
					},
					"indices":183
				}
			]
		},
		{
			"name":"Plane.057",
			"primitives":[
				{
					"attributes":{
						"POSITION":184,
						"NORMAL":185,
						"TEXCOORD_0":186
					},
					"indices":187
				}
			]
		},
		{
			"name":"Plane",
			"primitives":[
				{
					"attributes":{
						"POSITION":188,
						"NORMAL":189,
						"TEXCOORD_0":190
					},
					"indices":191
				}
			]
		},
		{
			"name":"Plane.001",
			"primitives":[
				{
					"attributes":{
						"POSITION":192,
						"NORMAL":193,
						"TEXCOORD_0":194
					},
					"indices":195
				}
			]
		},
		{
			"name":"Plane.003",
			"primitives":[
				{
					"attributes":{
						"POSITION":196,
						"NORMAL":197,
						"TEXCOORD_0":198
					},
					"indices":199
				}
			]
		}
	],
	"accessors":[
		{
			"bufferView":0,
			"componentType":5126,
			"count":90,
			"max":[
				1.1976605653762817,
				0.9405766129493713,
				0.7770613431930542
			],
			"min":[
				1.040781021118164,
				0.8656668663024902,
				0.7737878561019897
			],
			"type":"VEC3"
		},
		{
			"bufferView":1,
			"componentType":5126,
			"count":90,
			"type":"VEC3"
		},
		{
			"bufferView":2,
			"componentType":5126,
			"count":90,
			"type":"VEC2"
		},
		{
			"bufferView":3,
			"componentType":5123,
			"count":528,
			"type":"SCALAR"
		},
		{
			"bufferView":4,
			"componentType":5126,
			"count":56,
			"max":[
				0.7338942289352417,
				1.072605013847351,
				-0.31855061650276184
			],
			"min":[
				0.56733238697052,
				0.824468195438385,
				-0.3781561553478241
			],
			"type":"VEC3"
		},
		{
			"bufferView":5,
			"componentType":5126,
			"count":56,
			"type":"VEC3"
		},
		{
			"bufferView":6,
			"componentType":5126,
			"count":56,
			"type":"VEC2"
		},
		{
			"bufferView":7,
			"componentType":5123,
			"count":324,
			"type":"SCALAR"
		},
		{
			"bufferView":8,
			"componentType":5126,
			"count":56,
			"max":[
				0.8359614610671997,
				0.865611732006073,
				0.9100147485733032
			],
			"min":[
				0.7490202188491821,
				0.751757800579071,
				0.8357332944869995
			],
			"type":"VEC3"
		},
		{
			"bufferView":9,
			"componentType":5126,
			"count":56,
			"type":"VEC3"
		},
		{
			"bufferView":10,
			"componentType":5126,
			"count":56,
			"type":"VEC2"
		},
		{
			"bufferView":11,
			"componentType":5123,
			"count":324,
			"type":"SCALAR"
		},
		{
			"bufferView":12,
			"componentType":5126,
			"count":410,
			"max":[
				1.2021106481552124,
				0.9481430053710938,
				0.8823354244232178
			],
			"min":[
				0.8638582229614258,
				0.6550068855285645,
				0.7738855481147766
			],
			"type":"VEC3"
		},
		{
			"bufferView":13,
			"componentType":5126,
			"count":410,
			"type":"VEC3"
		},
		{
			"bufferView":14,
			"componentType":5126,
			"count":410,
			"type":"VEC2"
		},
		{
			"bufferView":15,
			"componentType":5123,
			"count":2448,
			"type":"SCALAR"
		},
		{
			"bufferView":16,
			"componentType":5126,
			"count":148,
			"max":[
				0.4272925853729248,
				1.0158627033233643,
				-2.28425931930542
			],
			"min":[
				0.3986841142177582,
				0.822052001953125,
				-2.414039373397827
			],
			"type":"VEC3"
		},
		{
			"bufferView":17,
			"componentType":5126,
			"count":148,
			"type":"VEC3"
		},
		{
			"bufferView":18,
			"componentType":5126,
			"count":148,
			"type":"VEC2"
		},
		{
			"bufferView":19,
			"componentType":5123,
			"count":876,
			"type":"SCALAR"
		},
		{
			"bufferView":20,
			"componentType":5126,
			"count":152,
			"max":[
				0.9821634292602539,
				0.6614755988121033,
				-0.3879847228527069
			],
			"min":[
				0.8074043989181519,
				0.2642437815666199,
				-0.6738237142562866
			],
			"type":"VEC3"
		},
		{
			"bufferView":21,
			"componentType":5126,
			"count":152,
			"type":"VEC3"
		},
		{
			"bufferView":22,
			"componentType":5126,
			"count":152,
			"type":"VEC2"
		},
		{
			"bufferView":23,
			"componentType":5123,
			"count":912,
			"type":"SCALAR"
		},
		{
			"bufferView":24,
			"componentType":5126,
			"count":9540,
			"max":[
				0.28849107027053833,
				1.1593425273895264,
				1.0949454307556152
			],
			"min":[
				0.09693990647792816,
				0.6934874057769775,
				0.7586448788642883
			],
			"type":"VEC3"
		},
		{
			"bufferView":25,
			"componentType":5126,
			"count":9540,
			"type":"VEC3"
		},
		{
			"bufferView":26,
			"componentType":5126,
			"count":9540,
			"type":"VEC2"
		},
		{
			"bufferView":27,
			"componentType":5123,
			"count":45360,
			"type":"SCALAR"
		},
		{
			"bufferView":28,
			"componentType":5126,
			"count":35,
			"max":[
				0.5374472737312317,
				0.9581180810928345,
				-1.142677664756775
			],
			"min":[
				0,
				0.8233451843261719,
				-1.8554584980010986
			],
			"type":"VEC3"
		},
		{
			"bufferView":29,
			"componentType":5126,
			"count":35,
			"type":"VEC3"
		},
		{
			"bufferView":30,
			"componentType":5126,
			"count":35,
			"type":"VEC2"
		},
		{
			"bufferView":31,
			"componentType":5123,
			"count":144,
			"type":"SCALAR"
		},
		{
			"bufferView":32,
			"componentType":5126,
			"count":89,
			"max":[
				0.8242635130882263,
				0.44122079014778137,
				2.264544725418091
			],
			"min":[
				0.4300374388694763,
				0.31829556822776794,
				1.9247862100601196
			],
			"type":"VEC3"
		},
		{
			"bufferView":33,
			"componentType":5126,
			"count":89,
			"type":"VEC3"
		},
		{
			"bufferView":34,
			"componentType":5126,
			"count":89,
			"type":"VEC2"
		},
		{
			"bufferView":35,
			"componentType":5123,
			"count":462,
			"type":"SCALAR"
		},
		{
			"bufferView":36,
			"componentType":5126,
			"count":62,
			"max":[
				0.7908213138580322,
				0.2763223350048065,
				2.202871799468994
			],
			"min":[
				0.4370869994163513,
				0.1207088977098465,
				1.9326566457748413
			],
			"type":"VEC3"
		},
		{
			"bufferView":37,
			"componentType":5126,
			"count":62,
			"type":"VEC3"
		},
		{
			"bufferView":38,
			"componentType":5126,
			"count":62,
			"type":"VEC2"
		},
		{
			"bufferView":39,
			"componentType":5123,
			"count":96,
			"type":"SCALAR"
		},
		{
			"bufferView":40,
			"componentType":5126,
			"count":476,
			"max":[
				0.8182869553565979,
				0.28699031472206116,
				2.2325854301452637
			],
			"min":[
				0.4370869994163513,
				0.1207088977098465,
				1.933791160583496
			],
			"type":"VEC3"
		},
		{
			"bufferView":41,
			"componentType":5126,
			"count":476,
			"type":"VEC3"
		},
		{
			"bufferView":42,
			"componentType":5126,
			"count":476,
			"type":"VEC2"
		},
		{
			"bufferView":43,
			"componentType":5123,
			"count":2388,
			"type":"SCALAR"
		},
		{
			"bufferView":44,
			"componentType":5126,
			"count":354,
			"max":[
				0.8677150011062622,
				1.008025050163269,
				-2.149986743927002
			],
			"min":[
				0,
				0.7733915448188782,
				-2.4689009189605713
			],
			"type":"VEC3"
		},
		{
			"bufferView":45,
			"componentType":5126,
			"count":354,
			"type":"VEC3"
		},
		{
			"bufferView":46,
			"componentType":5126,
			"count":354,
			"type":"VEC2"
		},
		{
			"bufferView":47,
			"componentType":5123,
			"count":2064,
			"type":"SCALAR"
		},
		{
			"bufferView":48,
			"componentType":5126,
			"count":112,
			"max":[
				0.3274190425872803,
				0.5601978302001953,
				-2.230319023132324
			],
			"min":[
				0.25941649079322815,
				0.49421554803848267,
				-2.2935853004455566
			],
			"type":"VEC3"
		},
		{
			"bufferView":49,
			"componentType":5126,
			"count":112,
			"type":"VEC3"
		},
		{
			"bufferView":50,
			"componentType":5126,
			"count":112,
			"type":"VEC2"
		},
		{
			"bufferView":51,
			"componentType":5123,
			"count":672,
			"type":"SCALAR"
		},
		{
			"bufferView":52,
			"componentType":5126,
			"count":34,
			"max":[
				0.8324914574623108,
				0.6510804891586304,
				-2.152162790298462
			],
			"min":[
				0.43174415826797485,
				0.38746586441993713,
				-2.337672472000122
			],
			"type":"VEC3"
		},
		{
			"bufferView":53,
			"componentType":5126,
			"count":34,
			"type":"VEC3"
		},
		{
			"bufferView":54,
			"componentType":5126,
			"count":34,
			"type":"VEC2"
		},
		{
			"bufferView":55,
			"componentType":5123,
			"count":156,
			"type":"SCALAR"
		},
		{
			"bufferView":56,
			"componentType":5126,
			"count":60,
			"max":[
				0.861579418182373,
				0.37911179661750793,
				-2.0833938121795654
			],
			"min":[
				0.2464943826198578,
				0.21903960406780243,
				-2.177722454071045
			],
			"type":"VEC3"
		},
		{
			"bufferView":57,
			"componentType":5126,
			"count":60,
			"type":"VEC3"
		},
		{
			"bufferView":58,
			"componentType":5123,
			"count":252,
			"type":"SCALAR"
		},
		{
			"bufferView":59,
			"componentType":5126,
			"count":18,
			"max":[
				0.25596871972084045,
				0.30109167098999023,
				-2.1781351566314697
			],
			"min":[
				0,
				0.21654857695102692,
				-2.178166627883911
			],
			"type":"VEC3"
		},
		{
			"bufferView":60,
			"componentType":5126,
			"count":18,
			"type":"VEC3"
		},
		{
			"bufferView":61,
			"componentType":5126,
			"count":18,
			"type":"VEC2"
		},
		{
			"bufferView":62,
			"componentType":5123,
			"count":48,
			"type":"SCALAR"
		},
		{
			"bufferView":63,
			"componentType":5126,
			"count":35,
			"max":[
				0.29290521144866943,
				0.3984893262386322,
				-2.176875114440918
			],
			"min":[
				0,
				0.32680925726890564,
				-2.17690372467041
			],
			"type":"VEC3"
		},
		{
			"bufferView":64,
			"componentType":5126,
			"count":35,
			"type":"VEC3"
		},
		{
			"bufferView":65,
			"componentType":5126,
			"count":35,
			"type":"VEC2"
		},
		{
			"bufferView":66,
			"componentType":5123,
			"count":75,
			"type":"SCALAR"
		},
		{
			"bufferView":67,
			"componentType":5126,
			"count":43268,
			"max":[
				0.45613470673561096,
				-0.050649043172597885,
				-0.003144295420497656
			],
			"min":[
				-0.019893324002623558,
				-0.3865237236022949,
				-0.20803715288639069
			],
			"type":"VEC3"
		},
		{
			"bufferView":68,
			"componentType":5126,
			"count":43268,
			"type":"VEC3"
		},
		{
			"bufferView":69,
			"componentType":5126,
			"count":43268,
			"type":"VEC2"
		},
		{
			"bufferView":70,
			"componentType":5123,
			"count":79560,
			"type":"SCALAR"
		},
		{
			"bufferView":71,
			"componentType":5126,
			"count":72,
			"max":[
				0.5000303983688354,
				0.6376535296440125,
				-2.149492025375366
			],
			"min":[
				0,
				0.3890555500984192,
				-2.2517566680908203
			],
			"type":"VEC3"
		},
		{
			"bufferView":72,
			"componentType":5126,
			"count":72,
			"type":"VEC3"
		},
		{
			"bufferView":73,
			"componentType":5126,
			"count":72,
			"type":"VEC2"
		},
		{
			"bufferView":74,
			"componentType":5123,
			"count":330,
			"type":"SCALAR"
		},
		{
			"bufferView":75,
			"componentType":5126,
			"count":5212,
			"max":[
				-0.00012137369776610285,
				0.10199233144521713,
				0.15750347077846527
			],
			"min":[
				-0.4945959150791168,
				-0.005283866077661514,
				0.10137797892093658
			],
			"type":"VEC3"
		},
		{
			"bufferView":76,
			"componentType":5126,
			"count":5212,
			"type":"VEC3"
		},
		{
			"bufferView":77,
			"componentType":5126,
			"count":5212,
			"type":"VEC2"
		},
		{
			"bufferView":78,
			"componentType":5123,
			"count":13440,
			"type":"SCALAR"
		},
		{
			"bufferView":79,
			"componentType":5126,
			"count":32310,
			"max":[
				0.32843172550201416,
				-0.30134066939353943,
				0.1540064662694931
			],
			"min":[
				-0.22067491710186005,
				-0.5022255182266235,
				0.1427161544561386
			],
			"type":"VEC3"
		},
		{
			"bufferView":80,
			"componentType":5126,
			"count":32310,
			"type":"VEC3"
		},
		{
			"bufferView":81,
			"componentType":5126,
			"count":32310,
			"type":"VEC2"
		},
		{
			"bufferView":82,
			"componentType":5123,
			"count":80400,
			"type":"SCALAR"
		},
		{
			"bufferView":83,
			"componentType":5126,
			"count":50,
			"max":[
				0.43139156699180603,
				0.7906118631362915,
				-2.2359867095947266
			],
			"min":[
				0,
				0.6766695380210876,
				-2.384104013442993
			],
			"type":"VEC3"
		},
		{
			"bufferView":84,
			"componentType":5126,
			"count":50,
			"type":"VEC3"
		},
		{
			"bufferView":85,
			"componentType":5126,
			"count":50,
			"type":"VEC2"
		},
		{
			"bufferView":86,
			"componentType":5123,
			"count":228,
			"type":"SCALAR"
		},
		{
			"bufferView":87,
			"componentType":5126,
			"count":1208,
			"max":[
				0.8752577304840088,
				0.7878695726394653,
				-1.9620842933654785
			],
			"min":[
				-0.8752577304840088,
				0.4519326388835907,
				-2.337603807449341
			],
			"type":"VEC3"
		},
		{
			"bufferView":88,
			"componentType":5126,
			"count":1208,
			"type":"VEC3"
		},
		{
			"bufferView":89,
			"componentType":5126,
			"count":1208,
			"type":"VEC2"
		},
		{
			"bufferView":90,
			"componentType":5123,
			"count":7224,
			"type":"SCALAR"
		},
		{
			"bufferView":91,
			"componentType":5126,
			"count":5195,
			"max":[
				-0.00011849089787574485,
				0.10197243839502335,
				0.10400062799453735
			],
			"min":[
				-0.4389638602733612,
				-0.005303765647113323,
				0.04787515476346016
			],
			"type":"VEC3"
		},
		{
			"bufferView":92,
			"componentType":5126,
			"count":5195,
			"type":"VEC3"
		},
		{
			"bufferView":93,
			"componentType":5126,
			"count":5195,
			"type":"VEC2"
		},
		{
			"bufferView":94,
			"componentType":5123,
			"count":13440,
			"type":"SCALAR"
		},
		{
			"bufferView":95,
			"componentType":5126,
			"count":791,
			"max":[
				0.9514661431312561,
				0.7689591646194458,
				2.4070794582366943
			],
			"min":[
				-7.041452590783592e-06,
				0.08580316603183746,
				-2.060944080352783
			],
			"type":"VEC3"
		},
		{
			"bufferView":96,
			"componentType":5126,
			"count":791,
			"type":"VEC3"
		},
		{
			"bufferView":97,
			"componentType":5123,
			"count":4413,
			"type":"SCALAR"
		},
		{
			"bufferView":98,
			"componentType":5126,
			"count":136,
			"max":[
				0.5390518307685852,
				1.003273606300354,
				-1.142677664756775
			],
			"min":[
				-0.0012018972774967551,
				0.8233451843261719,
				-1.8630117177963257
			],
			"type":"VEC3"
		},
		{
			"bufferView":99,
			"componentType":5126,
			"count":136,
			"type":"VEC3"
		},
		{
			"bufferView":100,
			"componentType":5126,
			"count":136,
			"type":"VEC2"
		},
		{
			"bufferView":101,
			"componentType":5123,
			"count":768,
			"type":"SCALAR"
		},
		{
			"bufferView":102,
			"componentType":5126,
			"count":330,
			"max":[
				0.5000303983688354,
				0.6376793384552002,
				-2.086024761199951
			],
			"min":[
				0,
				0.38249093294143677,
				-2.3230581283569336
			],
			"type":"VEC3"
		},
		{
			"bufferView":103,
			"componentType":5126,
			"count":330,
			"type":"VEC3"
		},
		{
			"bufferView":104,
			"componentType":5126,
			"count":330,
			"type":"VEC2"
		},
		{
			"bufferView":105,
			"componentType":5123,
			"count":1908,
			"type":"SCALAR"
		},
		{
			"bufferView":106,
			"componentType":5126,
			"count":527,
			"max":[
				0.9074883460998535,
				0.4018993675708771,
				-1.9202148914337158
			],
			"min":[
				0,
				0.13056960701942444,
				-2.2423148155212402
			],
			"type":"VEC3"
		},
		{
			"bufferView":107,
			"componentType":5126,
			"count":527,
			"type":"VEC3"
		},
		{
			"bufferView":108,
			"componentType":5126,
			"count":527,
			"type":"VEC2"
		},
		{
			"bufferView":109,
			"componentType":5123,
			"count":3036,
			"type":"SCALAR"
		},
		{
			"bufferView":110,
			"componentType":5126,
			"count":379,
			"max":[
				0.8611718416213989,
				0.4629596769809723,
				2.4369730949401855
			],
			"min":[
				0,
				0.2914707660675049,
				1.8898135423660278
			],
			"type":"VEC3"
		},
		{
			"bufferView":111,
			"componentType":5126,
			"count":379,
			"type":"VEC3"
		},
		{
			"bufferView":112,
			"componentType":5126,
			"count":379,
			"type":"VEC2"
		},
		{
			"bufferView":113,
			"componentType":5123,
			"count":1968,
			"type":"SCALAR"
		},
		{
			"bufferView":114,
			"componentType":5126,
			"count":216,
			"max":[
				0.43139156699180603,
				0.7905938029289246,
				-2.228936195373535
			],
			"min":[
				0,
				0.6766695380210876,
				-2.333953857421875
			],
			"type":"VEC3"
		},
		{
			"bufferView":115,
			"componentType":5126,
			"count":216,
			"type":"VEC3"
		},
		{
			"bufferView":116,
			"componentType":5126,
			"count":216,
			"type":"VEC2"
		},
		{
			"bufferView":117,
			"componentType":5123,
			"count":990,
			"type":"SCALAR"
		},
		{
			"bufferView":118,
			"componentType":5126,
			"count":135,
			"max":[
				0.8561117053031921,
				0.3162456154823303,
				2.2600622177124023
			],
			"min":[
				0.3617064356803894,
				0.10480667650699615,
				1.8464914560317993
			],
			"type":"VEC3"
		},
		{
			"bufferView":119,
			"componentType":5126,
			"count":135,
			"type":"VEC3"
		},
		{
			"bufferView":120,
			"componentType":5126,
			"count":135,
			"type":"VEC2"
		},
		{
			"bufferView":121,
			"componentType":5123,
			"count":720,
			"type":"SCALAR"
		},
		{
			"bufferView":122,
			"componentType":5126,
			"count":316,
			"max":[
				1.026227593421936,
				0.2015250325202942,
				2.470289468765259
			],
			"min":[
				0,
				0.0608377531170845,
				1.6033941507339478
			],
			"type":"VEC3"
		},
		{
			"bufferView":123,
			"componentType":5126,
			"count":316,
			"type":"VEC3"
		},
		{
			"bufferView":124,
			"componentType":5126,
			"count":316,
			"type":"VEC2"
		},
		{
			"bufferView":125,
			"componentType":5123,
			"count":1854,
			"type":"SCALAR"
		},
		{
			"bufferView":126,
			"componentType":5126,
			"count":378153,
			"max":[
				0.16326680779457092,
				0.37841206789016724,
				0.38045868277549744
			],
			"min":[
				-0.14621347188949585,
				-0.37848642468452454,
				-0.37850135564804077
			],
			"type":"VEC3"
		},
		{
			"bufferView":127,
			"componentType":5126,
			"count":378153,
			"type":"VEC3"
		},
		{
			"bufferView":128,
			"componentType":5126,
			"count":378153,
			"type":"VEC2"
		},
		{
			"bufferView":129,
			"componentType":5125,
			"count":2092128,
			"type":"SCALAR"
		},
		{
			"bufferView":130,
			"componentType":5126,
			"count":378144,
			"max":[
				0.14621348679065704,
				0.37841135263442993,
				0.378497838973999
			],
			"min":[
				-0.1632668375968933,
				-0.3784870505332947,
				-0.3804585039615631
			],
			"type":"VEC3"
		},
		{
			"bufferView":131,
			"componentType":5126,
			"count":378144,
			"type":"VEC3"
		},
		{
			"bufferView":132,
			"componentType":5126,
			"count":378144,
			"type":"VEC2"
		},
		{
			"bufferView":133,
			"componentType":5125,
			"count":2092128,
			"type":"SCALAR"
		},
		{
			"bufferView":134,
			"componentType":5126,
			"count":378153,
			"max":[
				0.16326680779457092,
				0.37841206789016724,
				0.38045868277549744
			],
			"min":[
				-0.14621347188949585,
				-0.37848642468452454,
				-0.37850135564804077
			],
			"type":"VEC3"
		},
		{
			"bufferView":135,
			"componentType":5126,
			"count":378153,
			"type":"VEC3"
		},
		{
			"bufferView":136,
			"componentType":5126,
			"count":378153,
			"type":"VEC2"
		},
		{
			"bufferView":137,
			"componentType":5126,
			"count":378144,
			"max":[
				0.14621348679065704,
				0.37841135263442993,
				0.378497838973999
			],
			"min":[
				-0.1632668375968933,
				-0.3784870505332947,
				-0.3804585039615631
			],
			"type":"VEC3"
		},
		{
			"bufferView":138,
			"componentType":5126,
			"count":378144,
			"type":"VEC3"
		},
		{
			"bufferView":139,
			"componentType":5126,
			"count":378144,
			"type":"VEC2"
		},
		{
			"bufferView":140,
			"componentType":5126,
			"count":1546,
			"max":[
				-0.28413453698158264,
				0.5806149840354919,
				0.8367019295692444
			],
			"min":[
				-0.6922522783279419,
				0.32087787985801697,
				0.4438592195510864
			],
			"type":"VEC3"
		},
		{
			"bufferView":141,
			"componentType":5126,
			"count":1546,
			"type":"VEC3"
		},
		{
			"bufferView":142,
			"componentType":5126,
			"count":1546,
			"type":"VEC2"
		},
		{
			"bufferView":143,
			"componentType":5123,
			"count":7986,
			"type":"SCALAR"
		},
		{
			"bufferView":144,
			"componentType":5126,
			"count":194,
			"max":[
				0.1838998645544052,
				0.6072300672531128,
				0.9021075963973999
			],
			"min":[
				0,
				0.5567238330841064,
				0.7908311486244202
			],
			"type":"VEC3"
		},
		{
			"bufferView":145,
			"componentType":5126,
			"count":194,
			"type":"VEC3"
		},
		{
			"bufferView":146,
			"componentType":5126,
			"count":194,
			"type":"VEC2"
		},
		{
			"bufferView":147,
			"componentType":5123,
			"count":561,
			"type":"SCALAR"
		},
		{
			"bufferView":148,
			"componentType":5126,
			"count":65,
			"max":[
				0.12530383467674255,
				0.41672083735466003,
				0.6676275134086609
			],
			"min":[
				0,
				0.28815168142318726,
				0.6347742080688477
			],
			"type":"VEC3"
		},
		{
			"bufferView":149,
			"componentType":5126,
			"count":65,
			"type":"VEC3"
		},
		{
			"bufferView":150,
			"componentType":5126,
			"count":65,
			"type":"VEC2"
		},
		{
			"bufferView":151,
			"componentType":5123,
			"count":306,
			"type":"SCALAR"
		},
		{
			"bufferView":152,
			"componentType":5126,
			"count":21,
			"max":[
				0.14429569244384766,
				0.49939826130867004,
				0.6529600620269775
			],
			"min":[
				-0.14429569244384766,
				0.4414730966091156,
				0.6069272756576538
			],
			"type":"VEC3"
		},
		{
			"bufferView":153,
			"componentType":5126,
			"count":21,
			"type":"VEC3"
		},
		{
			"bufferView":154,
			"componentType":5126,
			"count":21,
			"type":"VEC2"
		},
		{
			"bufferView":155,
			"componentType":5123,
			"count":72,
			"type":"SCALAR"
		},
		{
			"bufferView":156,
			"componentType":5126,
			"count":475,
			"max":[
				0.12530383467674255,
				0.416777640581131,
				0.718822181224823
			],
			"min":[
				-0.12530383467674255,
				0.2853482961654663,
				0.6234285235404968
			],
			"type":"VEC3"
		},
		{
			"bufferView":157,
			"componentType":5126,
			"count":475,
			"type":"VEC3"
		},
		{
			"bufferView":158,
			"componentType":5126,
			"count":475,
			"type":"VEC2"
		},
		{
			"bufferView":159,
			"componentType":5123,
			"count":2628,
			"type":"SCALAR"
		},
		{
			"bufferView":160,
			"componentType":5126,
			"count":35,
			"max":[
				0.17427371442317963,
				0.5705945491790771,
				0.7889016270637512
			],
			"min":[
				-0.17425228655338287,
				0.4977259337902069,
				0.6607330441474915
			],
			"type":"VEC3"
		},
		{
			"bufferView":161,
			"componentType":5126,
			"count":35,
			"type":"VEC3"
		},
		{
			"bufferView":162,
			"componentType":5126,
			"count":35,
			"type":"VEC2"
		},
		{
			"bufferView":163,
			"componentType":5123,
			"count":144,
			"type":"SCALAR"
		},
		{
			"bufferView":164,
			"componentType":5126,
			"count":2733,
			"max":[
				0.9370628595352173,
				0.631427526473999,
				0.9873476028442383
			],
			"min":[
				0.7109185457229614,
				-0.004815466236323118,
				-0.48907652497291565
			],
			"type":"VEC3"
		},
		{
			"bufferView":165,
			"componentType":5126,
			"count":2733,
			"type":"VEC3"
		},
		{
			"bufferView":166,
			"componentType":5126,
			"count":2733,
			"type":"VEC2"
		},
		{
			"bufferView":167,
			"componentType":5123,
			"count":15936,
			"type":"SCALAR"
		},
		{
			"bufferView":168,
			"componentType":5126,
			"count":1176,
			"max":[
				0.7826362252235413,
				0.6122742891311646,
				1.3749427795410156
			],
			"min":[
				0,
				0.22415724396705627,
				0.5928097367286682
			],
			"type":"VEC3"
		},
		{
			"bufferView":169,
			"componentType":5126,
			"count":1176,
			"type":"VEC3"
		},
		{
			"bufferView":170,
			"componentType":5126,
			"count":1176,
			"type":"VEC2"
		},
		{
			"bufferView":171,
			"componentType":5123,
			"count":5286,
			"type":"SCALAR"
		},
		{
			"bufferView":172,
			"componentType":5126,
			"count":4065,
			"max":[
				0.841194748878479,
				0.5707767009735107,
				1.3847838640213013
			],
			"min":[
				-0.841194748878479,
				-0.04713268205523491,
				-0.5317351818084717
			],
			"type":"VEC3"
		},
		{
			"bufferView":173,
			"componentType":5126,
			"count":4065,
			"type":"VEC3"
		},
		{
			"bufferView":174,
			"componentType":5126,
			"count":4065,
			"type":"VEC2"
		},
		{
			"bufferView":175,
			"componentType":5123,
			"count":23433,
			"type":"SCALAR"
		},
		{
			"bufferView":176,
			"componentType":5126,
			"count":2251,
			"max":[
				0.7780726552009583,
				0.8946801424026489,
				0.20737770199775696
			],
			"min":[
				0,
				-0.002802995266392827,
				-0.8963789939880371
			],
			"type":"VEC3"
		},
		{
			"bufferView":177,
			"componentType":5126,
			"count":2251,
			"type":"VEC3"
		},
		{
			"bufferView":178,
			"componentType":5126,
			"count":2251,
			"type":"VEC2"
		},
		{
			"bufferView":179,
			"componentType":5123,
			"count":12897,
			"type":"SCALAR"
		},
		{
			"bufferView":180,
			"componentType":5126,
			"count":257,
			"max":[
				0.17695352435112,
				0.4278079569339752,
				0.7736833691596985
			],
			"min":[
				0.12091696262359619,
				-0.024941569194197655,
				0.2630963921546936
			],
			"type":"VEC3"
		},
		{
			"bufferView":181,
			"componentType":5126,
			"count":257,
			"type":"VEC3"
		},
		{
			"bufferView":182,
			"componentType":5126,
			"count":257,
			"type":"VEC2"
		},
		{
			"bufferView":183,
			"componentType":5123,
			"count":1425,
			"type":"SCALAR"
		},
		{
			"bufferView":184,
			"componentType":5126,
			"count":70,
			"max":[
				0.8116750121116638,
				0.3481847643852234,
				2.2287230491638184
			],
			"min":[
				0.5535969138145447,
				0.15887856483459473,
				1.8057880401611328
			],
			"type":"VEC3"
		},
		{
			"bufferView":185,
			"componentType":5126,
			"count":70,
			"type":"VEC3"
		},
		{
			"bufferView":186,
			"componentType":5126,
			"count":70,
			"type":"VEC2"
		},
		{
			"bufferView":187,
			"componentType":5123,
			"count":366,
			"type":"SCALAR"
		},
		{
			"bufferView":188,
			"componentType":5126,
			"count":3566,
			"max":[
				1.0258445739746094,
				0.8648803234100342,
				2.4516851902008057
			],
			"min":[
				-5.44811591673966e-18,
				-0.19371961057186127,
				-2.400315284729004
			],
			"type":"VEC3"
		},
		{
			"bufferView":189,
			"componentType":5126,
			"count":3566,
			"type":"VEC3"
		},
		{
			"bufferView":190,
			"componentType":5126,
			"count":3566,
			"type":"VEC2"
		},
		{
			"bufferView":191,
			"componentType":5123,
			"count":18732,
			"type":"SCALAR"
		},
		{
			"bufferView":192,
			"componentType":5126,
			"count":132,
			"max":[
				-0.5150569677352905,
				0.5353531241416931,
				-2.0333971977233887
			],
			"min":[
				-0.84843909740448,
				0.4632943570613861,
				-2.100630521774292
			],
			"type":"VEC3"
		},
		{
			"bufferView":193,
			"componentType":5126,
			"count":132,
			"type":"VEC3"
		},
		{
			"bufferView":194,
			"componentType":5126,
			"count":132,
			"type":"VEC2"
		},
		{
			"bufferView":195,
			"componentType":5123,
			"count":648,
			"type":"SCALAR"
		},
		{
			"bufferView":196,
			"componentType":5126,
			"count":132,
			"max":[
				0.84843909740448,
				0.5353531241416931,
				-2.0333971977233887
			],
			"min":[
				0.5150569677352905,
				0.4632943570613861,
				-2.100630521774292
			],
			"type":"VEC3"
		},
		{
			"bufferView":197,
			"componentType":5126,
			"count":132,
			"type":"VEC3"
		},
		{
			"bufferView":198,
			"componentType":5126,
			"count":132,
			"type":"VEC2"
		},
		{
			"bufferView":199,
			"componentType":5123,
			"count":648,
			"type":"SCALAR"
		}
	],
	"bufferViews":[
		{
			"buffer":0,
			"byteLength":1080,
			"byteOffset":0,
			"target":34962
		},
		{
			"buffer":0,
			"byteLength":1080,
			"byteOffset":1080,
			"target":34962
		},
		{
			"buffer":0,
			"byteLength":720,
			"byteOffset":2160,
			"target":34962
		},
		{
			"buffer":0,
			"byteLength":1056,
			"byteOffset":2880,
			"target":34963
		},
		{
			"buffer":0,
			"byteLength":672,
			"byteOffset":3936,
			"target":34962
		},
		{
			"buffer":0,
			"byteLength":672,
			"byteOffset":4608,
			"target":34962
		},
		{
			"buffer":0,
			"byteLength":448,
			"byteOffset":5280,
			"target":34962
		},
		{
			"buffer":0,
			"byteLength":648,
			"byteOffset":5728,
			"target":34963
		},
		{
			"buffer":0,
			"byteLength":672,
			"byteOffset":6376,
			"target":34962
		},
		{
			"buffer":0,
			"byteLength":672,
			"byteOffset":7048,
			"target":34962
		},
		{
			"buffer":0,
			"byteLength":448,
			"byteOffset":7720,
			"target":34962
		},
		{
			"buffer":0,
			"byteLength":648,
			"byteOffset":8168,
			"target":34963
		},
		{
			"buffer":0,
			"byteLength":4920,
			"byteOffset":8816,
			"target":34962
		},
		{
			"buffer":0,
			"byteLength":4920,
			"byteOffset":13736,
			"target":34962
		},
		{
			"buffer":0,
			"byteLength":3280,
			"byteOffset":18656,
			"target":34962
		},
		{
			"buffer":0,
			"byteLength":4896,
			"byteOffset":21936,
			"target":34963
		},
		{
			"buffer":0,
			"byteLength":1776,
			"byteOffset":26832,
			"target":34962
		},
		{
			"buffer":0,
			"byteLength":1776,
			"byteOffset":28608,
			"target":34962
		},
		{
			"buffer":0,
			"byteLength":1184,
			"byteOffset":30384,
			"target":34962
		},
		{
			"buffer":0,
			"byteLength":1752,
			"byteOffset":31568,
			"target":34963
		},
		{
			"buffer":0,
			"byteLength":1824,
			"byteOffset":33320,
			"target":34962
		},
		{
			"buffer":0,
			"byteLength":1824,
			"byteOffset":35144,
			"target":34962
		},
		{
			"buffer":0,
			"byteLength":1216,
			"byteOffset":36968,
			"target":34962
		},
		{
			"buffer":0,
			"byteLength":1824,
			"byteOffset":38184,
			"target":34963
		},
		{
			"buffer":0,
			"byteLength":114480,
			"byteOffset":40008,
			"target":34962
		},
		{
			"buffer":0,
			"byteLength":114480,
			"byteOffset":154488,
			"target":34962
		},
		{
			"buffer":0,
			"byteLength":76320,
			"byteOffset":268968,
			"target":34962
		},
		{
			"buffer":0,
			"byteLength":90720,
			"byteOffset":345288,
			"target":34963
		},
		{
			"buffer":0,
			"byteLength":420,
			"byteOffset":436008,
			"target":34962
		},
		{
			"buffer":0,
			"byteLength":420,
			"byteOffset":436428,
			"target":34962
		},
		{
			"buffer":0,
			"byteLength":280,
			"byteOffset":436848,
			"target":34962
		},
		{
			"buffer":0,
			"byteLength":288,
			"byteOffset":437128,
			"target":34963
		},
		{
			"buffer":0,
			"byteLength":1068,
			"byteOffset":437416,
			"target":34962
		},
		{
			"buffer":0,
			"byteLength":1068,
			"byteOffset":438484,
			"target":34962
		},
		{
			"buffer":0,
			"byteLength":712,
			"byteOffset":439552,
			"target":34962
		},
		{
			"buffer":0,
			"byteLength":924,
			"byteOffset":440264,
			"target":34963
		},
		{
			"buffer":0,
			"byteLength":744,
			"byteOffset":441188,
			"target":34962
		},
		{
			"buffer":0,
			"byteLength":744,
			"byteOffset":441932,
			"target":34962
		},
		{
			"buffer":0,
			"byteLength":496,
			"byteOffset":442676,
			"target":34962
		},
		{
			"buffer":0,
			"byteLength":192,
			"byteOffset":443172,
			"target":34963
		},
		{
			"buffer":0,
			"byteLength":5712,
			"byteOffset":443364,
			"target":34962
		},
		{
			"buffer":0,
			"byteLength":5712,
			"byteOffset":449076,
			"target":34962
		},
		{
			"buffer":0,
			"byteLength":3808,
			"byteOffset":454788,
			"target":34962
		},
		{
			"buffer":0,
			"byteLength":4776,
			"byteOffset":458596,
			"target":34963
		},
		{
			"buffer":0,
			"byteLength":4248,
			"byteOffset":463372,
			"target":34962
		},
		{
			"buffer":0,
			"byteLength":4248,
			"byteOffset":467620,
			"target":34962
		},
		{
			"buffer":0,
			"byteLength":2832,
			"byteOffset":471868,
			"target":34962
		},
		{
			"buffer":0,
			"byteLength":4128,
			"byteOffset":474700,
			"target":34963
		},
		{
			"buffer":0,
			"byteLength":1344,
			"byteOffset":478828,
			"target":34962
		},
		{
			"buffer":0,
			"byteLength":1344,
			"byteOffset":480172,
			"target":34962
		},
		{
			"buffer":0,
			"byteLength":896,
			"byteOffset":481516,
			"target":34962
		},
		{
			"buffer":0,
			"byteLength":1344,
			"byteOffset":482412,
			"target":34963
		},
		{
			"buffer":0,
			"byteLength":408,
			"byteOffset":483756,
			"target":34962
		},
		{
			"buffer":0,
			"byteLength":408,
			"byteOffset":484164,
			"target":34962
		},
		{
			"buffer":0,
			"byteLength":272,
			"byteOffset":484572,
			"target":34962
		},
		{
			"buffer":0,
			"byteLength":312,
			"byteOffset":484844,
			"target":34963
		},
		{
			"buffer":0,
			"byteLength":720,
			"byteOffset":485156,
			"target":34962
		},
		{
			"buffer":0,
			"byteLength":720,
			"byteOffset":485876,
			"target":34962
		},
		{
			"buffer":0,
			"byteLength":504,
			"byteOffset":486596,
			"target":34963
		},
		{
			"buffer":0,
			"byteLength":216,
			"byteOffset":487100,
			"target":34962
		},
		{
			"buffer":0,
			"byteLength":216,
			"byteOffset":487316,
			"target":34962
		},
		{
			"buffer":0,
			"byteLength":144,
			"byteOffset":487532,
			"target":34962
		},
		{
			"buffer":0,
			"byteLength":96,
			"byteOffset":487676,
			"target":34963
		},
		{
			"buffer":0,
			"byteLength":420,
			"byteOffset":487772,
			"target":34962
		},
		{
			"buffer":0,
			"byteLength":420,
			"byteOffset":488192,
			"target":34962
		},
		{
			"buffer":0,
			"byteLength":280,
			"byteOffset":488612,
			"target":34962
		},
		{
			"buffer":0,
			"byteLength":150,
			"byteOffset":488892,
			"target":34963
		},
		{
			"buffer":0,
			"byteLength":519216,
			"byteOffset":489044,
			"target":34962
		},
		{
			"buffer":0,
			"byteLength":519216,
			"byteOffset":1008260,
			"target":34962
		},
		{
			"buffer":0,
			"byteLength":346144,
			"byteOffset":1527476,
			"target":34962
		},
		{
			"buffer":0,
			"byteLength":159120,
			"byteOffset":1873620,
			"target":34963
		},
		{
			"buffer":0,
			"byteLength":864,
			"byteOffset":2032740,
			"target":34962
		},
		{
			"buffer":0,
			"byteLength":864,
			"byteOffset":2033604,
			"target":34962
		},
		{
			"buffer":0,
			"byteLength":576,
			"byteOffset":2034468,
			"target":34962
		},
		{
			"buffer":0,
			"byteLength":660,
			"byteOffset":2035044,
			"target":34963
		},
		{
			"buffer":0,
			"byteLength":62544,
			"byteOffset":2035704,
			"target":34962
		},
		{
			"buffer":0,
			"byteLength":62544,
			"byteOffset":2098248,
			"target":34962
		},
		{
			"buffer":0,
			"byteLength":41696,
			"byteOffset":2160792,
			"target":34962
		},
		{
			"buffer":0,
			"byteLength":26880,
			"byteOffset":2202488,
			"target":34963
		},
		{
			"buffer":0,
			"byteLength":387720,
			"byteOffset":2229368,
			"target":34962
		},
		{
			"buffer":0,
			"byteLength":387720,
			"byteOffset":2617088,
			"target":34962
		},
		{
			"buffer":0,
			"byteLength":258480,
			"byteOffset":3004808,
			"target":34962
		},
		{
			"buffer":0,
			"byteLength":160800,
			"byteOffset":3263288,
			"target":34963
		},
		{
			"buffer":0,
			"byteLength":600,
			"byteOffset":3424088,
			"target":34962
		},
		{
			"buffer":0,
			"byteLength":600,
			"byteOffset":3424688,
			"target":34962
		},
		{
			"buffer":0,
			"byteLength":400,
			"byteOffset":3425288,
			"target":34962
		},
		{
			"buffer":0,
			"byteLength":456,
			"byteOffset":3425688,
			"target":34963
		},
		{
			"buffer":0,
			"byteLength":14496,
			"byteOffset":3426144,
			"target":34962
		},
		{
			"buffer":0,
			"byteLength":14496,
			"byteOffset":3440640,
			"target":34962
		},
		{
			"buffer":0,
			"byteLength":9664,
			"byteOffset":3455136,
			"target":34962
		},
		{
			"buffer":0,
			"byteLength":14448,
			"byteOffset":3464800,
			"target":34963
		},
		{
			"buffer":0,
			"byteLength":62340,
			"byteOffset":3479248,
			"target":34962
		},
		{
			"buffer":0,
			"byteLength":62340,
			"byteOffset":3541588,
			"target":34962
		},
		{
			"buffer":0,
			"byteLength":41560,
			"byteOffset":3603928,
			"target":34962
		},
		{
			"buffer":0,
			"byteLength":26880,
			"byteOffset":3645488,
			"target":34963
		},
		{
			"buffer":0,
			"byteLength":9492,
			"byteOffset":3672368,
			"target":34962
		},
		{
			"buffer":0,
			"byteLength":9492,
			"byteOffset":3681860,
			"target":34962
		},
		{
			"buffer":0,
			"byteLength":8826,
			"byteOffset":3691352,
			"target":34963
		},
		{
			"buffer":0,
			"byteLength":1632,
			"byteOffset":3700180,
			"target":34962
		},
		{
			"buffer":0,
			"byteLength":1632,
			"byteOffset":3701812,
			"target":34962
		},
		{
			"buffer":0,
			"byteLength":1088,
			"byteOffset":3703444,
			"target":34962
		},
		{
			"buffer":0,
			"byteLength":1536,
			"byteOffset":3704532,
			"target":34963
		},
		{
			"buffer":0,
			"byteLength":3960,
			"byteOffset":3706068,
			"target":34962
		},
		{
			"buffer":0,
			"byteLength":3960,
			"byteOffset":3710028,
			"target":34962
		},
		{
			"buffer":0,
			"byteLength":2640,
			"byteOffset":3713988,
			"target":34962
		},
		{
			"buffer":0,
			"byteLength":3816,
			"byteOffset":3716628,
			"target":34963
		},
		{
			"buffer":0,
			"byteLength":6324,
			"byteOffset":3720444,
			"target":34962
		},
		{
			"buffer":0,
			"byteLength":6324,
			"byteOffset":3726768,
			"target":34962
		},
		{
			"buffer":0,
			"byteLength":4216,
			"byteOffset":3733092,
			"target":34962
		},
		{
			"buffer":0,
			"byteLength":6072,
			"byteOffset":3737308,
			"target":34963
		},
		{
			"buffer":0,
			"byteLength":4548,
			"byteOffset":3743380,
			"target":34962
		},
		{
			"buffer":0,
			"byteLength":4548,
			"byteOffset":3747928,
			"target":34962
		},
		{
			"buffer":0,
			"byteLength":3032,
			"byteOffset":3752476,
			"target":34962
		},
		{
			"buffer":0,
			"byteLength":3936,
			"byteOffset":3755508,
			"target":34963
		},
		{
			"buffer":0,
			"byteLength":2592,
			"byteOffset":3759444,
			"target":34962
		},
		{
			"buffer":0,
			"byteLength":2592,
			"byteOffset":3762036,
			"target":34962
		},
		{
			"buffer":0,
			"byteLength":1728,
			"byteOffset":3764628,
			"target":34962
		},
		{
			"buffer":0,
			"byteLength":1980,
			"byteOffset":3766356,
			"target":34963
		},
		{
			"buffer":0,
			"byteLength":1620,
			"byteOffset":3768336,
			"target":34962
		},
		{
			"buffer":0,
			"byteLength":1620,
			"byteOffset":3769956,
			"target":34962
		},
		{
			"buffer":0,
			"byteLength":1080,
			"byteOffset":3771576,
			"target":34962
		},
		{
			"buffer":0,
			"byteLength":1440,
			"byteOffset":3772656,
			"target":34963
		},
		{
			"buffer":0,
			"byteLength":3792,
			"byteOffset":3774096,
			"target":34962
		},
		{
			"buffer":0,
			"byteLength":3792,
			"byteOffset":3777888,
			"target":34962
		},
		{
			"buffer":0,
			"byteLength":2528,
			"byteOffset":3781680,
			"target":34962
		},
		{
			"buffer":0,
			"byteLength":3708,
			"byteOffset":3784208,
			"target":34963
		},
		{
			"buffer":0,
			"byteLength":4537836,
			"byteOffset":3787916,
			"target":34962
		},
		{
			"buffer":0,
			"byteLength":4537836,
			"byteOffset":8325752,
			"target":34962
		},
		{
			"buffer":0,
			"byteLength":3025224,
			"byteOffset":12863588,
			"target":34962
		},
		{
			"buffer":0,
			"byteLength":8368512,
			"byteOffset":15888812,
			"target":34963
		},
		{
			"buffer":0,
			"byteLength":4537728,
			"byteOffset":24257324,
			"target":34962
		},
		{
			"buffer":0,
			"byteLength":4537728,
			"byteOffset":28795052,
			"target":34962
		},
		{
			"buffer":0,
			"byteLength":3025152,
			"byteOffset":33332780,
			"target":34962
		},
		{
			"buffer":0,
			"byteLength":8368512,
			"byteOffset":36357932,
			"target":34963
		},
		{
			"buffer":0,
			"byteLength":4537836,
			"byteOffset":44726444,
			"target":34962
		},
		{
			"buffer":0,
			"byteLength":4537836,
			"byteOffset":49264280,
			"target":34962
		},
		{
			"buffer":0,
			"byteLength":3025224,
			"byteOffset":53802116,
			"target":34962
		},
		{
			"buffer":0,
			"byteLength":4537728,
			"byteOffset":56827340,
			"target":34962
		},
		{
			"buffer":0,
			"byteLength":4537728,
			"byteOffset":61365068,
			"target":34962
		},
		{
			"buffer":0,
			"byteLength":3025152,
			"byteOffset":65902796,
			"target":34962
		},
		{
			"buffer":0,
			"byteLength":18552,
			"byteOffset":68927948,
			"target":34962
		},
		{
			"buffer":0,
			"byteLength":18552,
			"byteOffset":68946500,
			"target":34962
		},
		{
			"buffer":0,
			"byteLength":12368,
			"byteOffset":68965052,
			"target":34962
		},
		{
			"buffer":0,
			"byteLength":15972,
			"byteOffset":68977420,
			"target":34963
		},
		{
			"buffer":0,
			"byteLength":2328,
			"byteOffset":68993392,
			"target":34962
		},
		{
			"buffer":0,
			"byteLength":2328,
			"byteOffset":68995720,
			"target":34962
		},
		{
			"buffer":0,
			"byteLength":1552,
			"byteOffset":68998048,
			"target":34962
		},
		{
			"buffer":0,
			"byteLength":1122,
			"byteOffset":68999600,
			"target":34963
		},
		{
			"buffer":0,
			"byteLength":780,
			"byteOffset":69000724,
			"target":34962
		},
		{
			"buffer":0,
			"byteLength":780,
			"byteOffset":69001504,
			"target":34962
		},
		{
			"buffer":0,
			"byteLength":520,
			"byteOffset":69002284,
			"target":34962
		},
		{
			"buffer":0,
			"byteLength":612,
			"byteOffset":69002804,
			"target":34963
		},
		{
			"buffer":0,
			"byteLength":252,
			"byteOffset":69003416,
			"target":34962
		},
		{
			"buffer":0,
			"byteLength":252,
			"byteOffset":69003668,
			"target":34962
		},
		{
			"buffer":0,
			"byteLength":168,
			"byteOffset":69003920,
			"target":34962
		},
		{
			"buffer":0,
			"byteLength":144,
			"byteOffset":69004088,
			"target":34963
		},
		{
			"buffer":0,
			"byteLength":5700,
			"byteOffset":69004232,
			"target":34962
		},
		{
			"buffer":0,
			"byteLength":5700,
			"byteOffset":69009932,
			"target":34962
		},
		{
			"buffer":0,
			"byteLength":3800,
			"byteOffset":69015632,
			"target":34962
		},
		{
			"buffer":0,
			"byteLength":5256,
			"byteOffset":69019432,
			"target":34963
		},
		{
			"buffer":0,
			"byteLength":420,
			"byteOffset":69024688,
			"target":34962
		},
		{
			"buffer":0,
			"byteLength":420,
			"byteOffset":69025108,
			"target":34962
		},
		{
			"buffer":0,
			"byteLength":280,
			"byteOffset":69025528,
			"target":34962
		},
		{
			"buffer":0,
			"byteLength":288,
			"byteOffset":69025808,
			"target":34963
		},
		{
			"buffer":0,
			"byteLength":32796,
			"byteOffset":69026096,
			"target":34962
		},
		{
			"buffer":0,
			"byteLength":32796,
			"byteOffset":69058892,
			"target":34962
		},
		{
			"buffer":0,
			"byteLength":21864,
			"byteOffset":69091688,
			"target":34962
		},
		{
			"buffer":0,
			"byteLength":31872,
			"byteOffset":69113552,
			"target":34963
		},
		{
			"buffer":0,
			"byteLength":14112,
			"byteOffset":69145424,
			"target":34962
		},
		{
			"buffer":0,
			"byteLength":14112,
			"byteOffset":69159536,
			"target":34962
		},
		{
			"buffer":0,
			"byteLength":9408,
			"byteOffset":69173648,
			"target":34962
		},
		{
			"buffer":0,
			"byteLength":10572,
			"byteOffset":69183056,
			"target":34963
		},
		{
			"buffer":0,
			"byteLength":48780,
			"byteOffset":69193628,
			"target":34962
		},
		{
			"buffer":0,
			"byteLength":48780,
			"byteOffset":69242408,
			"target":34962
		},
		{
			"buffer":0,
			"byteLength":32520,
			"byteOffset":69291188,
			"target":34962
		},
		{
			"buffer":0,
			"byteLength":46866,
			"byteOffset":69323708,
			"target":34963
		},
		{
			"buffer":0,
			"byteLength":27012,
			"byteOffset":69370576,
			"target":34962
		},
		{
			"buffer":0,
			"byteLength":27012,
			"byteOffset":69397588,
			"target":34962
		},
		{
			"buffer":0,
			"byteLength":18008,
			"byteOffset":69424600,
			"target":34962
		},
		{
			"buffer":0,
			"byteLength":25794,
			"byteOffset":69442608,
			"target":34963
		},
		{
			"buffer":0,
			"byteLength":3084,
			"byteOffset":69468404,
			"target":34962
		},
		{
			"buffer":0,
			"byteLength":3084,
			"byteOffset":69471488,
			"target":34962
		},
		{
			"buffer":0,
			"byteLength":2056,
			"byteOffset":69474572,
			"target":34962
		},
		{
			"buffer":0,
			"byteLength":2850,
			"byteOffset":69476628,
			"target":34963
		},
		{
			"buffer":0,
			"byteLength":840,
			"byteOffset":69479480,
			"target":34962
		},
		{
			"buffer":0,
			"byteLength":840,
			"byteOffset":69480320,
			"target":34962
		},
		{
			"buffer":0,
			"byteLength":560,
			"byteOffset":69481160,
			"target":34962
		},
		{
			"buffer":0,
			"byteLength":732,
			"byteOffset":69481720,
			"target":34963
		},
		{
			"buffer":0,
			"byteLength":42792,
			"byteOffset":69482452,
			"target":34962
		},
		{
			"buffer":0,
			"byteLength":42792,
			"byteOffset":69525244,
			"target":34962
		},
		{
			"buffer":0,
			"byteLength":28528,
			"byteOffset":69568036,
			"target":34962
		},
		{
			"buffer":0,
			"byteLength":37464,
			"byteOffset":69596564,
			"target":34963
		},
		{
			"buffer":0,
			"byteLength":1584,
			"byteOffset":69634028,
			"target":34962
		},
		{
			"buffer":0,
			"byteLength":1584,
			"byteOffset":69635612,
			"target":34962
		},
		{
			"buffer":0,
			"byteLength":1056,
			"byteOffset":69637196,
			"target":34962
		},
		{
			"buffer":0,
			"byteLength":1296,
			"byteOffset":69638252,
			"target":34963
		},
		{
			"buffer":0,
			"byteLength":1584,
			"byteOffset":69639548,
			"target":34962
		},
		{
			"buffer":0,
			"byteLength":1584,
			"byteOffset":69641132,
			"target":34962
		},
		{
			"buffer":0,
			"byteLength":1056,
			"byteOffset":69642716,
			"target":34962
		},
		{
			"buffer":0,
			"byteLength":1296,
			"byteOffset":69643772,
			"target":34963
		}
	],
	"buffers":[
		{
			"byteLength":69645068,
			"uri":"GTR.bin"
		}
	]
}
